<svg width="297" height="297" viewBox="0 0 297 297" fill="none" xmlns="http://www.w3.org/2000/svg">
<path d="M150.333 203.762C150.333 171.412 176.65 145.095 209 145.095C215.527 145.095 221.8 146.182 227.669 148.158L232.551 89.571H47.163L61.681 263.781C63.233 282.408 79.091 297 97.784 297H181.931C200.623 297 216.482 282.408 218.034 263.781L218.207 261.7C215.206 262.175 212.132 262.429 209 262.429C176.651 262.429 150.333 236.112 150.333 203.762Z" fill="#C72905"/>
<path d="M209 158.714C184.161 158.714 163.952 178.923 163.952 203.762C163.952 228.601 184.161 248.81 209 248.81C233.839 248.81 254.048 228.601 254.048 203.762C254.048 178.923 233.839 158.714 209 158.714ZM231.101 216.232C233.76 218.892 233.76 223.203 231.101 225.863C229.771 227.192 228.028 227.857 226.285 227.857C224.543 227.857 222.799 227.192 221.469 225.863L209 213.393L196.53 225.863C195.2 227.192 193.457 227.857 191.714 227.857C189.972 227.857 188.228 227.192 186.898 225.863C184.239 223.203 184.239 218.892 186.898 216.232L199.368 203.762L186.898 191.292C184.239 188.632 184.239 184.321 186.898 181.661C189.558 179.003 193.869 179.003 196.529 181.661L208.999 194.131L221.469 181.661C224.13 179.003 228.441 179.003 231.101 181.661C233.76 184.321 233.76 188.632 231.101 191.292L218.631 203.762L231.101 216.232Z" fill="#C72905"/>
<path d="M112.095 26.102C112.095 19.219 117.695 13.619 124.578 13.619H155.134C162.018 13.619 167.618 19.219 167.618 26.102V34.609H181.237V26.102C181.238 11.71 169.528 0 155.135 0H124.579C110.187 0 98.477 11.71 98.477 26.102V34.609H112.095V26.102V26.102Z" fill="#C72905"/>
<path d="M236.762 63.643C236.762 55.143 229.847 48.228 221.347 48.228H58.367C49.867 48.228 42.952 55.143 42.952 63.643V75.953H236.762V63.643Z" fill="#C72905"/>
</svg>
