<svg width="320" height="320" viewBox="0 0 320 320" fill="none" xmlns="http://www.w3.org/2000/svg">
<g clip-path="url(#clip0_7_2)">
<path d="M150.036 94.8761L119.036 125.875C107.616 137.296 96.1298 148.717 84.7743 160.268C82.0986 163.009 80.0755 166.663 79.2924 170.253C75.181 189.113 71.2 207.974 67.2191 226.834L65.0002 237.276C63.956 242.367 65.3265 247.457 68.7854 250.916C71.4611 253.591 75.1809 255.092 79.0966 255.092C80.2061 255.092 81.3155 254.962 82.4249 254.766L93.9109 252.351C112.184 248.501 130.522 244.585 148.796 240.8C153.038 239.887 156.627 237.994 159.694 234.927C210.99 183.566 262.285 132.271 313.58 81.0408C317.365 77.2556 319.454 72.7526 319.976 67.2054C320.041 66.2917 319.976 65.3781 319.78 64.5297C319.454 63.2244 319.193 61.854 318.866 60.5487C318.149 57.2204 317.365 53.4353 315.799 49.7806C306.206 27.8529 290.282 12.1902 268.485 3.37989C264.112 1.61784 259.479 1.03049 255.432 0.508397L254.323 0.377875C248.45 -0.339999 243.098 1.61784 238.465 6.31665C209.097 35.8147 179.534 65.3781 150.036 94.8761ZM252.169 16.1058C252.3 16.1058 252.365 16.1058 252.496 16.1058L253.605 16.2364C256.999 16.6279 260.131 17.0195 262.611 18.0637C280.362 25.2424 293.415 38.0336 301.311 56.0457C302.225 58.1341 302.812 60.8098 303.399 63.616C303.595 64.6602 303.856 65.7044 304.052 66.7485C303.791 67.9232 303.334 68.7064 302.421 69.5548C251.06 120.785 199.765 172.145 148.469 223.441C147.621 224.289 146.838 224.681 145.663 224.942C127.325 228.792 109.052 232.643 90.7131 236.493L81.0545 238.516L82.8818 229.967C86.8627 211.172 90.8436 192.311 94.8898 173.516C95.0204 172.929 95.5425 172.015 96.1298 171.362C107.485 159.876 118.841 148.456 130.261 137.1L161.261 106.101C190.824 76.5377 220.387 46.9744 249.885 17.3458C251.125 16.3016 251.713 16.1058 252.169 16.1058Z" fill="#14B8A6"/>
<path d="M25.3866 71.3821H139.333C143.771 71.3821 147.36 67.7927 147.36 63.355C147.36 58.9172 143.771 55.3278 139.333 55.3278H25.3866C11.3555 55.3278 0 66.7485 0 80.7144V294.38C0 308.411 11.4207 319.766 25.3866 319.766H238.987C253.018 319.766 264.373 308.346 264.373 294.38V185.067C264.373 180.629 260.784 177.04 256.346 177.04C251.908 177.04 248.319 180.629 248.319 185.067V294.38C248.319 299.535 244.077 303.777 238.921 303.777H25.3866C20.231 303.777 15.989 299.535 15.989 294.38V80.7797C15.989 75.6241 20.231 71.3821 25.3866 71.3821Z" fill="#14B8A6"/>
</g>
<defs>
<clipPath id="clip0_7_2">
<rect width="320" height="320" fill="white"/>
</clipPath>
</defs>
</svg>
