<svg width="200" height="200" viewBox="0 0 200 200" fill="none" xmlns="http://www.w3.org/2000/svg">
<path d="M99.9999 100C81.5904 100 66.6666 85.0762 66.6666 66.6667C66.6666 48.2572 81.5904 33.3333 99.9999 33.3333C118.409 33.3333 133.333 48.2572 133.333 66.6667C133.333 85.0762 118.409 100 99.9999 100ZM99.9999 125C126.549 125 150.379 129.761 166.667 150.521C166.667 156.466 166.667 161.848 166.667 166.667C77.7777 166.667 33.3333 166.667 33.3333 166.667C33.3333 166.667 33.3333 159.438 33.3333 150.521C49.6209 129.761 73.4512 125 99.9999 125Z" fill="#14B8A6"/>
</svg>
